<?xml version="1.0" encoding="UTF-8" standalone="no"?>
<svg
   version="1.1"
   width="209.20000000000002"
   height="150.6"
   id="svg73"
   sodipodi:docname="rover.svg"
   inkscape:version="1.2.2 (732a01da63, 2022-12-09)"
   xmlns:inkscape="http://www.inkscape.org/namespaces/inkscape"
   xmlns:sodipodi="http://sodipodi.sourceforge.net/DTD/sodipodi-0.dtd"
   xmlns="http://www.w3.org/2000/svg"
   xmlns:svg="http://www.w3.org/2000/svg">
  <sodipodi:namedview
     id="namedview75"
     pagecolor="#ffffff"
     bordercolor="#000000"
     borderopacity="0.25"
     inkscape:showpageshadow="2"
     inkscape:pageopacity="0.0"
     inkscape:pagecheckerboard="0"
     inkscape:deskcolor="#d1d1d1"
     showgrid="false"
     inkscape:zoom="6.8193888"
     inkscape:cx="101.03545"
     inkscape:cy="75.226683"
     inkscape:window-width="3840"
     inkscape:window-height="2036"
     inkscape:window-x="-12"
     inkscape:window-y="-12"
     inkscape:window-maximized="1"
     inkscape:current-layer="g71" />
  <defs
     id="defs7">
    <linearGradient
       id="DsHakhStOxxQ"
       x1="1198.2000007152558px"
       x2="400px"
       y1="689.2000007152558px"
       y2="439px"
       gradientUnits="userSpaceOnUse">
      <stop
         offset="0"
         stop-color="rgb(211,211,211)"
         stop-opacity="1"
         id="stop2" />
      <stop
         offset="1"
         stop-color="rgb(211,211,211)"
         stop-opacity="1"
         id="stop4" />
    </linearGradient>
  </defs>
  <g
     transform="translate(25.59999999999999,4.75) scale(0.1,0.1)"
     id="g71">
    <path
       fill="rgb(244,236,255)"
       stroke="rgb(255,255,255)"
       paint-order="fill stroke markers"
       d=" M 789.6000003576279 -45.5 L 1825.2000007152556 -45.5 L 1825.2000007152556 -45.5 A 8 8 0 0 1 1833.2000007152556 -37.5 L 1833.2000007152556 1448.4000014305116 L 1833.2000007152556 1448.4000014305116 A 8 8 0 0 1 1825.2000007152556 1456.4000014305116 L -245.9999999999999 1456.4000014305116 L -245.9999999999999 1456.4000014305116 A 8 8 0 0 1 -253.9999999999999 1448.4000014305116 L -253.9999999999999 -37.5 L -253.9999999999999 -37.5 A 8 8 0 0 1 -245.9999999999999 -45.5 L 789.6000003576279 -45.5 Z"
       fill-opacity="1"
       stroke-opacity="1"
       stroke-miterlimit="10"
       stroke-width="2"
       id="path9" />
    <text
       fill="rgb(0,0,0)"
       stroke="none"
       font-family="Avenir, Helvetica, Arial, sans-serif"
       font-size="32px"
       font-style="normal"
       font-weight="bold"
       text-decoration="normal"
       x="789.6000003576279"
       y="29.5"
       text-anchor="middle"
       dominant-baseline="text-after-edge"
       fill-opacity="1"
       id="text11">.</text>
    <path
       fill="rgb(255,255,255)"
       stroke="rgb(211,211,211)"
       paint-order="fill stroke markers"
       d=" M 789.6000003576279 156 L 1623.7000007152558 156 L 1623.7000007152558 156 A 8 8 0 0 1 1631.7000007152558 164 L 1631.7000007152558 1246.9000014305116 L 1631.7000007152558 1246.9000014305116 A 8 8 0 0 1 1623.7000007152558 1254.9000014305116 L -44.5 1254.9000014305116 L -44.5 1254.9000014305116 A 8 8 0 0 1 -52.5 1246.9000014305116 L -52.5 164 L -52.5 164 A 8 8 0 0 1 -44.5 156 L 789.6000003576279 156 Z"
       fill-opacity="1"
       stroke-opacity="1"
       stroke-miterlimit="10"
       id="path13" />
    <text
       fill="rgb(0,0,0)"
       stroke="none"
       font-family="Avenir, Helvetica, Arial, sans-serif"
       font-size="32px"
       font-style="normal"
       font-weight="bold"
       text-decoration="normal"
       x="789.6000003576279"
       y="231"
       text-anchor="middle"
       dominant-baseline="text-after-edge"
       fill-opacity="1"
       id="text15">main.tf</text>
    <path
       fill="rgb(255,255,255)"
       stroke="rgb(0,0,0)"
       paint-order="fill stroke markers"
       d=" M 400 305 L 722 305 L 722 305 A 8 8 0 0 1 730 313 L 730 487 L 730 487 A 8 8 0 0 1 722 495 L 78 495 L 78 495 A 8 8 0 0 1 70 487 L 70 313 L 70 313 A 8 8 0 0 1 78 305 L 400 305 Z"
       fill-opacity="1"
       stroke-opacity="1"
       stroke-miterlimit="10"
       stroke-width="5"
       id="path17" />
    <rect
       fill="rgb(255,255,255)"
       stroke="none"
       x="179"
       y="256"
       width="442"
       height="96"
       fill-opacity="1"
       id="rect19" />
    <text
       fill="rgb(0,0,0)"
       stroke="none"
       font-family="Avenir, Helvetica, Arial, sans-serif"
       font-size="32px"
       font-style="normal"
       font-weight="bold"
       text-decoration="normal"
       x="400"
       y="320"
       text-anchor="middle"
       dominant-baseline="text-after-edge"
       fill-opacity="1"
       id="text21">kubernetes_namespace</text>
    <path
       fill="rgb(255,255,255)"
       stroke="rgb(0,0,0)"
       paint-order="fill stroke markers"
       d=" M 1198.2000007152558 305 L 1520.2000007152558 305 L 1520.2000007152558 305 A 8 8 0 0 1 1528.2000007152558 313 L 1528.2000007152558 487 L 1528.2000007152558 487 A 8 8 0 0 1 1520.2000007152558 495 L 876.2000007152558 495 L 876.2000007152558 495 A 8 8 0 0 1 868.2000007152558 487 L 868.2000007152558 313 L 868.2000007152558 313 A 8 8 0 0 1 876.2000007152558 305 L 1198.2000007152558 305 Z"
       fill-opacity="1"
       stroke-opacity="1"
       stroke-miterlimit="10"
       stroke-width="5"
       id="path23" />
    <rect
       fill="rgb(255,255,255)"
       stroke="none"
       x="920.2000007152558"
       y="256"
       width="556"
       height="96"
       fill-opacity="1"
       id="rect25" />
    <text
       fill="rgb(0,0,0)"
       stroke="none"
       font-family="Avenir, Helvetica, Arial, sans-serif"
       font-size="32px"
       font-style="normal"
       font-weight="bold"
       text-decoration="normal"
       x="1198.2000007152558"
       y="320"
       text-anchor="middle"
       dominant-baseline="text-after-edge"
       fill-opacity="1"
       id="text27">kubernetes_persistent_volume</text>
    <path
       fill="rgb(255,255,255)"
       stroke="rgb(0,0,0)"
       paint-order="fill stroke markers"
       d=" M 400 633.2000007152558 L 722 633.2000007152558 L 722 633.2000007152558 A 8 8 0 0 1 730 641.2000007152558 L 730 815.2000007152558 L 730 815.2000007152558 A 8 8 0 0 1 722 823.2000007152558 L 78 823.2000007152558 L 78 823.2000007152558 A 8 8 0 0 1 70 815.2000007152558 L 70 641.2000007152558 L 70 641.2000007152558 A 8 8 0 0 1 78 633.2000007152558 L 400 633.2000007152558 Z"
       fill-opacity="1"
       stroke-opacity="1"
       stroke-miterlimit="10"
       stroke-width="5"
       id="path29" />
    <rect
       fill="rgb(255,255,255)"
       stroke="none"
       x="47.5"
       y="584.2000007152558"
       width="705"
       height="96"
       fill-opacity="1"
       id="rect31" />
    <text
       fill="rgb(0,0,0)"
       stroke="none"
       font-family="Avenir, Helvetica, Arial, sans-serif"
       font-size="32px"
       font-style="normal"
       font-weight="bold"
       text-decoration="normal"
       x="400"
       y="648.2000007152558"
       text-anchor="middle"
       dominant-baseline="text-after-edge"
       fill-opacity="1"
       id="text33">kubernetes_persistent_volume_claim_v1</text>
    <path
       fill="rgb(255,255,255)"
       stroke="rgb(0,0,0)"
       paint-order="fill stroke markers"
       d=" M 1198.2000007152558 633.2000007152558 L 1520.2000007152558 633.2000007152558 L 1520.2000007152558 633.2000007152558 A 8 8 0 0 1 1528.2000007152558 641.2000007152558 L 1528.2000007152558 815.2000007152558 L 1528.2000007152558 815.2000007152558 A 8 8 0 0 1 1520.2000007152558 823.2000007152558 L 876.2000007152558 823.2000007152558 L 876.2000007152558 823.2000007152558 A 8 8 0 0 1 868.2000007152558 815.2000007152558 L 868.2000007152558 641.2000007152558 L 868.2000007152558 641.2000007152558 A 8 8 0 0 1 876.2000007152558 633.2000007152558 L 1198.2000007152558 633.2000007152558 Z"
       fill-opacity="1"
       stroke-opacity="1"
       stroke-miterlimit="10"
       stroke-width="5"
       id="path35" />
    <rect
       fill="rgb(255,255,255)"
       stroke="none"
       x="1061.2000007152558"
       y="584.2000007152558"
       width="274"
       height="96"
       fill-opacity="1"
       id="rect37" />
    <path
       fill="none"
       stroke="url(#DsHakhStOxxQ)"
       paint-order="fill stroke markers"
       d=" M 1198.2000007152558 689.2000007152558 L 1198.2000007152558 564.1000003576279 L 400 564.1000003576279 L 400 439"
       stroke-linejoin="round"
       stroke-miterlimit="10"
       stroke-width="10"
       id="path47" />
    <text
       fill="rgb(0,0,0)"
       stroke="none"
       font-family="Avenir, Helvetica, Arial, sans-serif"
       font-size="32px"
       font-style="normal"
       font-weight="bold"
       text-decoration="normal"
       x="1198.2000007152558"
       y="648.2000007152558"
       text-anchor="middle"
       dominant-baseline="text-after-edge"
       fill-opacity="1"
       id="text39">helm_release</text>
    <path
       fill="rgb(255,255,255)"
       stroke="rgb(0,0,0)"
       paint-order="fill stroke markers"
       d=" M 400 961.4000014305116 L 722 961.4000014305116 L 722 961.4000014305116 A 8 8 0 0 1 730 969.4000014305116 L 730 1143.4000014305116 L 730 1143.4000014305116 A 8 8 0 0 1 722 1151.4000014305116 L 78 1151.4000014305116 L 78 1151.4000014305116 A 8 8 0 0 1 70 1143.4000014305116 L 70 969.4000014305116 L 70 969.4000014305116 A 8 8 0 0 1 78 961.4000014305116 L 400 961.4000014305116 Z"
       fill-opacity="1"
       stroke-opacity="1"
       stroke-miterlimit="10"
       stroke-width="5"
       id="path41" />
    <rect
       fill="rgb(255,255,255)"
       stroke="none"
       x="178"
       y="912.4000014305116"
       width="444"
       height="96"
       fill-opacity="1"
       id="rect43" />
    <text
       fill="rgb(0,0,0)"
       stroke="none"
       font-family="Avenir, Helvetica, Arial, sans-serif"
       font-size="32px"
       font-style="normal"
       font-weight="bold"
       text-decoration="normal"
       x="400"
       y="976.4000014305116"
       text-anchor="middle"
       dominant-baseline="text-after-edge"
       fill-opacity="1"
       id="text45">kubernetes_cron_job_v1</text>
    <path
       fill="rgb(40,167,69)"
       stroke="url(#DsHakhStOxxQ)"
       paint-order="stroke fill markers"
       d=" M 400 361 L 666 361 L 666 361 A 8 8 0 0 1 674 369 L 674 431 L 674 431 A 8 8 0 0 1 666 439 L 134 439 L 134 439 A 8 8 0 0 1 126 431 L 126 369 L 126 369 A 8 8 0 0 1 134 361 L 400 361 Z"
       fill-opacity="1"
       id="path49" />
    <text
       fill="rgb(255,255,255)"
       stroke="none"
       font-family="Avenir, Helvetica, Arial, sans-serif"
       font-size="32px"
       font-style="normal"
       font-weight="bold"
       text-decoration="normal"
       x="400"
       y="416"
       text-anchor="middle"
       dominant-baseline="text-after-edge"
       fill-opacity="1"
       id="text51">ns_airflow</text>
    <path
       fill="rgb(40,167,69)"
       stroke="none"
       paint-order="stroke fill markers"
       d=" M 1198.2000007152558 361 L 1464.2000007152558 361 L 1464.2000007152558 361 A 8 8 0 0 1 1472.2000007152558 369 L 1472.2000007152558 431 L 1472.2000007152558 431 A 8 8 0 0 1 1464.2000007152558 439 L 932.2000007152558 439 L 932.2000007152558 439 A 8 8 0 0 1 924.2000007152558 431 L 924.2000007152558 369 L 924.2000007152558 369 A 8 8 0 0 1 932.2000007152558 361 L 1198.2000007152558 361 Z"
       fill-opacity="1"
       id="path53" />
    <text
       fill="rgb(255,255,255)"
       stroke="none"
       font-family="Avenir, Helvetica, Arial, sans-serif"
       font-size="32px"
       font-style="normal"
       font-weight="bold"
       text-decoration="normal"
       x="1198.2000007152558"
       y="416"
       text-anchor="middle"
       dominant-baseline="text-after-edge"
       fill-opacity="1"
       id="text55">airflow_dags_pv</text>
    <path
       fill="rgb(40,167,69)"
       stroke="none"
       paint-order="stroke fill markers"
       d=" M 400 689.2000007152558 L 666 689.2000007152558 L 666 689.2000007152558 A 8 8 0 0 1 674 697.2000007152558 L 674 759.2000007152558 L 674 759.2000007152558 A 8 8 0 0 1 666 767.2000007152558 L 134 767.2000007152558 L 134 767.2000007152558 A 8 8 0 0 1 126 759.2000007152558 L 126 697.2000007152558 L 126 697.2000007152558 A 8 8 0 0 1 134 689.2000007152558 L 400 689.2000007152558 Z"
       fill-opacity="1"
       id="path57" />
    <text
       fill="rgb(255,255,255)"
       stroke="none"
       font-family="Avenir, Helvetica, Arial, sans-serif"
       font-size="32px"
       font-style="normal"
       font-weight="bold"
       text-decoration="normal"
       x="400"
       y="744.2000007152558"
       text-anchor="middle"
       dominant-baseline="text-after-edge"
       fill-opacity="1"
       id="text59">airflow_dags_pvc</text>
    <path
       fill="rgb(40,167,69)"
       stroke="none"
       paint-order="stroke fill markers"
       d=" M 1198.2000007152558 689.2000007152558 L 1464.2000007152558 689.2000007152558 L 1464.2000007152558 689.2000007152558 A 8 8 0 0 1 1472.2000007152558 697.2000007152558 L 1472.2000007152558 759.2000007152558 L 1472.2000007152558 759.2000007152558 A 8 8 0 0 1 1464.2000007152558 767.2000007152558 L 932.2000007152558 767.2000007152558 L 932.2000007152558 767.2000007152558 A 8 8 0 0 1 924.2000007152558 759.2000007152558 L 924.2000007152558 697.2000007152558 L 924.2000007152558 697.2000007152558 A 8 8 0 0 1 932.2000007152558 689.2000007152558 L 1198.2000007152558 689.2000007152558 Z"
       fill-opacity="1"
       id="path61" />
    <text
       fill="rgb(255,255,255)"
       stroke="none"
       font-family="Avenir, Helvetica, Arial, sans-serif"
       font-size="32px"
       font-style="normal"
       font-weight="bold"
       text-decoration="normal"
       x="1198.2000007152558"
       y="744.2000007152558"
       text-anchor="middle"
       dominant-baseline="text-after-edge"
       fill-opacity="1"
       id="text63">airflow_eks</text>
    <path
       fill="rgb(40,167,69)"
       stroke="none"
       paint-order="stroke fill markers"
       d=" M 400 1017.4000014305116 L 666 1017.4000014305116 L 666 1017.4000014305116 A 8 8 0 0 1 674 1025.4000014305116 L 674 1087.4000014305116 L 674 1087.4000014305116 A 8 8 0 0 1 666 1095.4000014305116 L 134 1095.4000014305116 L 134 1095.4000014305116 A 8 8 0 0 1 126 1087.4000014305116 L 126 1025.4000014305116 L 126 1025.4000014305116 A 8 8 0 0 1 134 1017.4000014305116 L 400 1017.4000014305116 Z"
       fill-opacity="1"
       id="path65" />
    <text
       fill="rgb(255,255,255)"
       stroke="none"
       font-family="Avenir, Helvetica, Arial, sans-serif"
       font-size="32px"
       font-style="normal"
       font-weight="bold"
       text-decoration="normal"
       x="400"
       y="1072.4000014305116"
       text-anchor="middle"
       dominant-baseline="text-after-edge"
       fill-opacity="1"
       id="text67">airflow_dags_s3_sync</text>
    <g
       transform="scale(10,10) translate(-25.59999999999999,-4.75)"
       id="g69" />
  </g>
</svg>
