<?xml version="1.0" encoding="UTF-8" standalone="no"?>
<!DOCTYPE svg PUBLIC "-//W3C//DTD SVG 1.1//EN"
 "http://www.w3.org/Graphics/SVG/1.1/DTD/svg11.dtd">
<!-- Generated by graphviz version 8.1.0 (20230707.0739)
 -->
<!-- Pages: 1 -->
<svg width="1656pt" height="476pt"
 viewBox="0.00 0.00 1655.70 476.00" xmlns="http://www.w3.org/2000/svg" xmlns:xlink="http://www.w3.org/1999/xlink">
<g id="graph0" class="graph" transform="scale(1 1) rotate(0) translate(4 472)">
<polygon fill="white" stroke="none" points="-4,4 -4,-472 1651.7,-472 1651.7,4 -4,4"/>
<!-- [root] helm_release.airflow_eks (expand) -->
<g id="node1" class="node">
<title>[root] helm_release.airflow_eks (expand)</title>
<polygon fill="none" stroke="black" points="475.49,-324 319.99,-324 319.99,-288 475.49,-288 475.49,-324"/>
<text text-anchor="middle" x="397.74" y="-300.57" font-family="Times New Roman,serif" font-size="14.00">helm_release.airflow_eks</text>
</g>
<!-- [root] kubernetes_namespace.ns_airflow (expand) -->
<g id="node3" class="node">
<title>[root] kubernetes_namespace.ns_airflow (expand)</title>
<polygon fill="none" stroke="black" points="402.37,-108 195.12,-108 195.12,-72 402.37,-72 402.37,-108"/>
<text text-anchor="middle" x="298.74" y="-84.58" font-family="Times New Roman,serif" font-size="14.00">kubernetes_namespace.ns_airflow</text>
</g>
<!-- [root] helm_release.airflow_eks (expand)&#45;&gt;[root] kubernetes_namespace.ns_airflow (expand) -->
<g id="edge1" class="edge">
<title>[root] helm_release.airflow_eks (expand)&#45;&gt;[root] kubernetes_namespace.ns_airflow (expand)</title>
<path fill="none" stroke="black" d="M319.56,-291.55C277,-282.46 230.47,-269.02 217.74,-252 184.86,-208.04 235.09,-148.72 269.95,-115.74"/>
<polygon fill="black" stroke="black" points="272.01,-118.68 276.99,-109.34 267.27,-113.54 272.01,-118.68"/>
</g>
<!-- [root] provider[&quot;registry.terraform.io/hashicorp/helm&quot;] -->
<g id="node6" class="node">
<title>[root] provider[&quot;registry.terraform.io/hashicorp/helm&quot;]</title>
<polygon fill="none" stroke="black" points="493.74,-252 226.76,-234 493.74,-216 760.73,-234 493.74,-252"/>
<text text-anchor="middle" x="493.74" y="-228.57" font-family="Times New Roman,serif" font-size="14.00">provider[&quot;registry.terraform.io/hashicorp/helm&quot;]</text>
</g>
<!-- [root] helm_release.airflow_eks (expand)&#45;&gt;[root] provider[&quot;registry.terraform.io/hashicorp/helm&quot;] -->
<g id="edge2" class="edge">
<title>[root] helm_release.airflow_eks (expand)&#45;&gt;[root] provider[&quot;registry.terraform.io/hashicorp/helm&quot;]</title>
<path fill="none" stroke="black" d="M421.47,-287.7C434.13,-278.46 449.85,-267 463.39,-257.13"/>
<polygon fill="black" stroke="black" points="464.91,-259.63 470.92,-250.91 460.78,-253.97 464.91,-259.63"/>
</g>
<!-- [root] kubernetes_cron_job_v1.airflow_dags_s3_sync (expand) -->
<g id="node2" class="node">
<title>[root] kubernetes_cron_job_v1.airflow_dags_s3_sync (expand)</title>
<polygon fill="none" stroke="black" points="1062.37,-324 777.12,-324 777.12,-288 1062.37,-288 1062.37,-324"/>
<text text-anchor="middle" x="919.74" y="-300.57" font-family="Times New Roman,serif" font-size="14.00">kubernetes_cron_job_v1.airflow_dags_s3_sync</text>
</g>
<!-- [root] kubernetes_persistent_volume.airflow_dags_pv (expand) -->
<g id="node4" class="node">
<title>[root] kubernetes_persistent_volume.airflow_dags_pv (expand)</title>
<polygon fill="none" stroke="black" points="1060.87,-252 778.62,-252 778.62,-216 1060.87,-216 1060.87,-252"/>
<text text-anchor="middle" x="919.74" y="-228.57" font-family="Times New Roman,serif" font-size="14.00">kubernetes_persistent_volume.airflow_dags_pv</text>
</g>
<!-- [root] kubernetes_cron_job_v1.airflow_dags_s3_sync (expand)&#45;&gt;[root] kubernetes_persistent_volume.airflow_dags_pv (expand) -->
<g id="edge3" class="edge">
<title>[root] kubernetes_cron_job_v1.airflow_dags_s3_sync (expand)&#45;&gt;[root] kubernetes_persistent_volume.airflow_dags_pv (expand)</title>
<path fill="none" stroke="black" d="M919.74,-287.7C919.74,-280.24 919.74,-271.32 919.74,-262.97"/>
<polygon fill="black" stroke="black" points="923.24,-263.1 919.74,-253.1 916.24,-263.1 923.24,-263.1"/>
</g>
<!-- [root] provider[&quot;registry.terraform.io/hashicorp/kubernetes&quot;] -->
<g id="node7" class="node">
<title>[root] provider[&quot;registry.terraform.io/hashicorp/kubernetes&quot;]</title>
<polygon fill="none" stroke="black" points="298.74,-36 0,-18 298.74,0 597.48,-18 298.74,-36"/>
<text text-anchor="middle" x="298.74" y="-12.58" font-family="Times New Roman,serif" font-size="14.00">provider[&quot;registry.terraform.io/hashicorp/kubernetes&quot;]</text>
</g>
<!-- [root] kubernetes_namespace.ns_airflow (expand)&#45;&gt;[root] provider[&quot;registry.terraform.io/hashicorp/kubernetes&quot;] -->
<g id="edge4" class="edge">
<title>[root] kubernetes_namespace.ns_airflow (expand)&#45;&gt;[root] provider[&quot;registry.terraform.io/hashicorp/kubernetes&quot;]</title>
<path fill="none" stroke="black" d="M298.74,-71.7C298.74,-64.24 298.74,-55.32 298.74,-46.97"/>
<polygon fill="black" stroke="black" points="302.24,-47.1 298.74,-37.1 295.24,-47.1 302.24,-47.1"/>
</g>
<!-- [root] kubernetes_persistent_volume_claim_v1.airflow_dags_pvc (expand) -->
<g id="node5" class="node">
<title>[root] kubernetes_persistent_volume_claim_v1.airflow_dags_pvc (expand)</title>
<polygon fill="none" stroke="black" points="833.12,-180 486.37,-180 486.37,-144 833.12,-144 833.12,-180"/>
<text text-anchor="middle" x="659.74" y="-156.57" font-family="Times New Roman,serif" font-size="14.00">kubernetes_persistent_volume_claim_v1.airflow_dags_pvc</text>
</g>
<!-- [root] kubernetes_persistent_volume.airflow_dags_pv (expand)&#45;&gt;[root] kubernetes_persistent_volume_claim_v1.airflow_dags_pvc (expand) -->
<g id="edge5" class="edge">
<title>[root] kubernetes_persistent_volume.airflow_dags_pv (expand)&#45;&gt;[root] kubernetes_persistent_volume_claim_v1.airflow_dags_pvc (expand)</title>
<path fill="none" stroke="black" d="M854.8,-215.52C818.37,-205.71 772.75,-193.43 734.79,-183.21"/>
<polygon fill="black" stroke="black" points="735.87,-179.6 725.3,-180.38 734.05,-186.36 735.87,-179.6"/>
</g>
<!-- [root] kubernetes_persistent_volume_claim_v1.airflow_dags_pvc (expand)&#45;&gt;[root] kubernetes_namespace.ns_airflow (expand) -->
<g id="edge6" class="edge">
<title>[root] kubernetes_persistent_volume_claim_v1.airflow_dags_pvc (expand)&#45;&gt;[root] kubernetes_namespace.ns_airflow (expand)</title>
<path fill="none" stroke="black" d="M569.58,-143.52C517.79,-133.48 452.64,-120.84 399.21,-110.48"/>
<polygon fill="black" stroke="black" points="400.18,-106.91 389.69,-108.44 398.84,-113.78 400.18,-106.91"/>
</g>
<!-- [root] provider[&quot;registry.terraform.io/hashicorp/helm&quot;] (close) -->
<g id="node8" class="node">
<title>[root] provider[&quot;registry.terraform.io/hashicorp/helm&quot;] (close)</title>
<ellipse fill="none" stroke="black" cx="397.74" cy="-378" rx="240.68" ry="18"/>
<text text-anchor="middle" x="397.74" y="-372.57" font-family="Times New Roman,serif" font-size="14.00">[root] provider[&quot;registry.terraform.io/hashicorp/helm&quot;] (close)</text>
</g>
<!-- [root] provider[&quot;registry.terraform.io/hashicorp/helm&quot;] (close)&#45;&gt;[root] helm_release.airflow_eks (expand) -->
<g id="edge7" class="edge">
<title>[root] provider[&quot;registry.terraform.io/hashicorp/helm&quot;] (close)&#45;&gt;[root] helm_release.airflow_eks (expand)</title>
<path fill="none" stroke="black" d="M397.74,-359.7C397.74,-352.24 397.74,-343.32 397.74,-334.97"/>
<polygon fill="black" stroke="black" points="401.24,-335.1 397.74,-325.1 394.24,-335.1 401.24,-335.1"/>
</g>
<!-- [root] provider[&quot;registry.terraform.io/hashicorp/kubernetes&quot;] (close) -->
<g id="node9" class="node">
<title>[root] provider[&quot;registry.terraform.io/hashicorp/kubernetes&quot;] (close)</title>
<ellipse fill="none" stroke="black" cx="919.74" cy="-378" rx="263.14" ry="18"/>
<text text-anchor="middle" x="919.74" y="-372.57" font-family="Times New Roman,serif" font-size="14.00">[root] provider[&quot;registry.terraform.io/hashicorp/kubernetes&quot;] (close)</text>
</g>
<!-- [root] provider[&quot;registry.terraform.io/hashicorp/kubernetes&quot;] (close)&#45;&gt;[root] kubernetes_cron_job_v1.airflow_dags_s3_sync (expand) -->
<g id="edge8" class="edge">
<title>[root] provider[&quot;registry.terraform.io/hashicorp/kubernetes&quot;] (close)&#45;&gt;[root] kubernetes_cron_job_v1.airflow_dags_s3_sync (expand)</title>
<path fill="none" stroke="black" d="M919.74,-359.7C919.74,-352.24 919.74,-343.32 919.74,-334.97"/>
<polygon fill="black" stroke="black" points="923.24,-335.1 919.74,-325.1 916.24,-335.1 923.24,-335.1"/>
</g>
<!-- [root] root -->
<g id="node10" class="node">
<title>[root] root</title>
<ellipse fill="none" stroke="black" cx="1114.74" cy="-450" rx="50.07" ry="18"/>
<text text-anchor="middle" x="1114.74" y="-444.57" font-family="Times New Roman,serif" font-size="14.00">[root] root</text>
</g>
<!-- [root] root&#45;&gt;[root] provider[&quot;registry.terraform.io/hashicorp/helm&quot;] (close) -->
<g id="edge11" class="edge">
<title>[root] root&#45;&gt;[root] provider[&quot;registry.terraform.io/hashicorp/helm&quot;] (close)</title>
<path fill="none" stroke="black" d="M1066.86,-444.33C963.14,-434.2 713.89,-409.87 550.62,-393.93"/>
<polygon fill="black" stroke="black" points="551.28,-390.38 540.99,-392.89 550.6,-397.34 551.28,-390.38"/>
</g>
<!-- [root] root&#45;&gt;[root] provider[&quot;registry.terraform.io/hashicorp/kubernetes&quot;] (close) -->
<g id="edge12" class="edge">
<title>[root] root&#45;&gt;[root] provider[&quot;registry.terraform.io/hashicorp/kubernetes&quot;] (close)</title>
<path fill="none" stroke="black" d="M1080.33,-436.65C1051.89,-426.44 1010.9,-411.73 977.46,-399.72"/>
<polygon fill="black" stroke="black" points="978.94,-396.17 968.34,-396.09 976.57,-402.76 978.94,-396.17"/>
</g>
<!-- [root] local.name (expand) -->
<g id="node11" class="node">
<title>[root] local.name (expand)</title>
<ellipse fill="none" stroke="black" cx="1310.74" cy="-378" rx="109.45" ry="18"/>
<text text-anchor="middle" x="1310.74" y="-372.57" font-family="Times New Roman,serif" font-size="14.00">[root] local.name (expand)</text>
</g>
<!-- [root] root&#45;&gt;[root] local.name (expand) -->
<g id="edge9" class="edge">
<title>[root] root&#45;&gt;[root] local.name (expand)</title>
<path fill="none" stroke="black" d="M1149.33,-436.65C1178.91,-426.08 1222,-410.69 1256.21,-398.47"/>
<polygon fill="black" stroke="black" points="1257.28,-401.45 1265.52,-394.79 1254.93,-394.86 1257.28,-401.45"/>
</g>
<!-- [root] local.tags (expand) -->
<g id="node12" class="node">
<title>[root] local.tags (expand)</title>
<ellipse fill="none" stroke="black" cx="1542.74" cy="-378" rx="104.96" ry="18"/>
<text text-anchor="middle" x="1542.74" y="-372.57" font-family="Times New Roman,serif" font-size="14.00">[root] local.tags (expand)</text>
</g>
<!-- [root] root&#45;&gt;[root] local.tags (expand) -->
<g id="edge10" class="edge">
<title>[root] root&#45;&gt;[root] local.tags (expand)</title>
<path fill="none" stroke="black" d="M1159.74,-441.64C1230.37,-430.09 1368.46,-407.5 1458.09,-392.84"/>
<polygon fill="black" stroke="black" points="1458.47,-396.17 1467.77,-391.1 1457.34,-389.26 1458.47,-396.17"/>
</g>
</g>
</svg>
